<svg width="41" height="42" viewBox="0 0 41 42" fill="none" xmlns="http://www.w3.org/2000/svg">
<path fill-rule="evenodd" clip-rule="evenodd" d="M31.324 29.7585C32.2977 29.7195 33.2715 29.6806 34.2842 29.6027C36.5823 29.4858 37.6339 29.5248 39.0751 28.2394C40.4773 26.993 40.5552 25.435 40.3994 23.6044C40.2436 21.7348 40.0488 19.8652 39.8541 17.9956C39.6204 15.8533 39.6593 14.4511 38.2961 13.3995C37.6729 12.9321 36.9328 12.6594 35.9591 12.7763C35.3359 12.8542 34.0116 13.0489 33.4273 13.2047C34.8685 13.7111 36.3486 13.2437 37.2834 14.4122C37.7897 15.0743 37.6339 15.5807 37.556 16.4765L36.9328 23.4096C36.7381 25.6687 37.0886 25.2792 33.8558 25.1234C30.1944 24.9676 27.8185 24.5002 25.9489 26.993C25.053 28.2005 24.9362 29.1742 24.9362 30.927C24.9362 31.6281 24.9362 35.562 24.8583 35.9126L15.8998 36.1073C15.6661 35.562 15.3934 31.4333 15.3545 30.4985C14.965 24.1497 16.1724 21.7348 21.7033 18.424C20.4569 18.424 18.0031 19.4367 17.1072 19.9431C12.4332 22.6306 11.6932 27.1099 11.4595 32.7576C11.3816 34.5883 11.1089 36.8084 11.9269 38.3275C12.5501 39.496 13.8354 40.6255 15.5103 40.8982C16.3282 41.015 20.3401 41.054 21.4696 41.0929C23.3003 41.1319 25.5204 41.3656 27.0395 40.6255C28.3248 40.0413 29.4154 38.8338 29.8439 37.2758C30.1944 35.9905 29.9997 32.8745 29.9607 31.3554C29.8828 29.4079 29.6102 29.8364 31.324 29.7585Z" fill="#2E4186"/>
<path fill-rule="evenodd" clip-rule="evenodd" d="M12.4333 15.6195C12.9007 15.3079 13.0954 15.0353 13.7186 14.5679C14.186 14.2173 14.6534 13.9836 15.1987 13.672C15.5103 13.0488 15.783 12.6983 15.9777 11.8414C16.2114 10.7897 16.0556 7.94636 15.9777 6.73891C15.9777 6.38836 15.783 4.59666 15.9777 4.44086C16.1335 4.36296 23.2614 3.73976 24.1962 3.62291C25.0141 3.54501 25.4426 3.38921 26.0268 3.89556C26.8837 4.71351 26.689 7.44001 27.3901 9.23171C27.7406 8.10216 27.9743 6.38836 28.1301 5.18091C28.4028 3.50606 27.8964 2.61021 27.0395 1.71436C26.1826 0.857455 24.9362 0.740605 23.4172 0.584805C21.976 0.429005 20.5349 0.312155 19.0548 0.195304C16.2114 -0.0383958 13.7186 -0.544746 11.849 2.18176C10.8363 3.70081 10.9921 6.27151 10.9532 8.37481C10.9532 8.92011 10.9921 10.2444 10.8753 10.6729C9.2004 10.6729 7.5645 10.7118 5.88965 10.7897C4.1369 10.8676 3.16315 10.9455 1.95569 11.8024C1.13774 12.3867 0.280843 13.4773 0.0471424 14.9574C-0.186558 16.3206 0.514543 22.5526 0.709293 24.2664C0.942994 26.0192 1.29354 26.915 2.34519 27.694C3.5916 28.6678 4.72115 28.473 6.43495 28.2004C7.2529 28.0835 10.0963 27.6161 10.6026 27.3435C9.2783 27.1098 7.954 26.7982 6.59075 26.6034C4.9159 26.3697 3.70845 26.5255 3.9032 24.578C4.02005 23.6043 4.56535 15.9311 4.64325 15.8143C4.7601 15.6585 5.42225 15.7753 5.617 15.7753C7.4866 15.8143 10.9142 16.009 12.4333 15.6195Z" fill="#2E4186"/>
<path fill-rule="evenodd" clip-rule="evenodd" d="M13.6797 14.4899C12.9786 15.0352 12.7449 15.3079 12.2775 15.8921C11.9659 16.2816 11.8101 16.5932 11.5764 17.0606C10.5637 19.1639 11.0311 21.1893 11.6932 23.1368C11.9659 22.6694 11.9659 20.3324 13.2512 18.7355C15.5882 15.8142 19.639 17.1385 23.1056 16.7101C25.7152 16.3985 25.9879 15.8921 27.7017 15.3468C27.6238 16.9048 27.429 18.6186 26.9616 19.9819C26.3774 21.5399 25.7931 22.1631 24.6636 22.9421C23.0666 24.0716 21.236 24.9285 19.2495 25.4738C18.7432 25.5907 17.4189 25.7854 17.0683 25.9412C17.1462 26.0191 17.1073 25.9802 17.2241 26.0581C18.7432 26.7981 21.7813 26.876 23.4172 26.6034C25.3647 26.2918 27.429 25.5128 28.6365 24.5001C32.3368 21.3841 33.2716 15.191 32.6873 10.4002C32.5705 9.34853 31.9473 8.60848 31.1682 8.25793C29.2207 7.43998 28.2859 8.99798 26.2605 10.2444C22.6771 12.4645 21.236 12.0361 17.8084 12.7372C17.341 12.854 16.7567 12.9709 16.3283 13.1267C15.3935 13.4772 14.4587 13.8667 13.6797 14.4899Z" fill="#2E4186"/>
</svg>
