<svg width="134" height="43" viewBox="0 0 134 43" fill="none" xmlns="http://www.w3.org/2000/svg">
<path fill-rule="evenodd" clip-rule="evenodd" d="M32.0423 30.6664C33.016 30.6275 33.9898 30.5885 35.0025 30.5106C37.3005 30.3938 38.3522 30.4327 39.7933 29.1474C41.1955 27.901 41.2734 26.343 41.1176 24.5123C40.9618 22.6427 40.7671 20.7731 40.5723 18.9035C40.3386 16.7613 40.3776 15.3591 39.0143 14.3074C38.3911 13.84 37.6511 13.5674 36.6773 13.6842C36.0541 13.7621 34.7298 13.9569 34.1456 14.1127C35.5867 14.619 37.0668 14.1516 38.0016 15.3201C38.508 15.9823 38.3522 16.4886 38.2743 17.3845L37.6511 24.3176C37.4563 26.5767 37.8069 26.1872 34.574 26.0314C30.9127 25.8756 28.5368 25.4082 26.6672 27.901C25.7713 29.1084 25.6545 30.0822 25.6545 31.8349C25.6545 32.536 25.6545 36.47 25.5766 36.8205L16.618 37.0153C16.3843 36.47 16.1117 32.3413 16.0727 31.4065C15.6832 25.0576 16.8907 22.6427 22.4216 19.332C21.1752 19.332 18.7213 20.3447 17.8255 20.851C13.1515 23.5386 12.4114 28.0178 12.1777 33.6656C12.0998 35.4962 11.8272 37.7164 12.6451 39.2354C13.2683 40.4039 14.5537 41.5335 16.2285 41.8061C17.0465 41.923 21.0583 41.9619 22.1879 42.0009C24.0185 42.0398 26.2387 42.2735 27.7578 41.5335C29.0431 40.9492 30.1337 39.7418 30.5622 38.1838C30.9127 36.8984 30.718 33.7824 30.679 32.2634C30.6011 30.3159 30.3285 30.7443 32.0423 30.6664Z" fill="#2E4186"/>
<path fill-rule="evenodd" clip-rule="evenodd" d="M13.1515 16.5275C13.6189 16.2159 13.8137 15.9432 14.4369 15.4758C14.9043 15.1253 15.3717 14.8916 15.917 14.58C16.2286 13.9568 16.5012 13.6062 16.696 12.7493C16.9297 11.6977 16.7739 8.85432 16.696 7.64687C16.696 7.29632 16.5012 5.50462 16.696 5.34882C16.8518 5.27092 23.9796 4.64772 24.9144 4.53087C25.7324 4.45297 26.1608 4.29717 26.7451 4.80352C27.602 5.62147 27.4072 8.34797 28.1083 10.1397C28.4589 9.01012 28.6926 7.29632 28.8484 6.08887C29.121 4.41402 28.6147 3.51817 27.7578 2.62232C26.9009 1.76541 25.6545 1.64856 24.1354 1.49276C22.6943 1.33696 21.2531 1.22011 19.773 1.10326C16.9297 0.869563 14.4369 0.363213 12.5673 3.08972C11.5546 4.60877 11.7104 7.17947 11.6714 9.28277C11.6714 9.82807 11.7104 11.1524 11.5935 11.5808C9.91866 11.5808 8.28276 11.6198 6.60791 11.6977C4.85516 11.7756 3.88141 11.8535 2.67396 12.7104C1.85601 13.2946 0.999104 14.3852 0.765404 15.8653C0.531704 17.2286 1.2328 23.4606 1.42755 25.1744C1.66126 26.9271 2.01181 27.823 3.06346 28.602C4.30986 29.5757 5.43941 29.381 7.15321 29.1083C7.97116 28.9915 10.8145 28.5241 11.3209 28.2514C9.99656 28.0177 8.67226 27.7061 7.30901 27.5114C5.63416 27.2777 4.42671 27.4335 4.62146 25.486C4.73831 24.5122 5.28361 16.8391 5.36151 16.7222C5.47836 16.5664 6.14051 16.6833 6.33526 16.6833C8.20486 16.7222 11.6325 16.917 13.1515 16.5275Z" fill="#2E4186"/>
<path fill-rule="evenodd" clip-rule="evenodd" d="M14.3978 15.3979C13.6967 15.9432 13.463 16.2158 12.9956 16.8001C12.684 17.1896 12.5282 17.5012 12.2945 17.9686C11.2818 20.0719 11.7492 22.0973 12.4114 24.0448C12.684 23.5774 12.684 21.2404 13.9694 19.6434C16.3064 16.7222 20.3572 18.0465 23.8237 17.618C26.4334 17.3064 26.706 16.8001 28.4198 16.2548C28.3419 17.8128 28.1472 19.5266 27.6798 20.8898C27.0955 22.4479 26.5113 23.0711 25.3817 23.8501C23.7848 24.9796 21.9541 25.8365 19.9677 26.3818C19.4613 26.4987 18.137 26.6934 17.7865 26.8492C17.8644 26.9271 17.8254 26.8882 17.9423 26.9661C19.4613 27.7061 22.4994 27.784 24.1353 27.5114C26.0828 27.1998 28.1472 26.4208 29.3546 25.4081C33.0549 22.2921 33.9897 16.099 33.4054 11.3081C33.2886 10.2565 32.6654 9.51644 31.8864 9.16589C29.9389 8.34793 29.0041 9.90594 26.9787 11.1523C23.3953 13.3725 21.9541 12.944 18.5265 13.6451C18.0591 13.762 17.4749 13.8788 17.0464 14.0346C16.1116 14.3852 15.1768 14.7747 14.3978 15.3979Z" fill="#2E4186"/>
<path fill-rule="evenodd" clip-rule="evenodd" d="M44.9346 29.5758V27.5894C46.6094 28.4073 48.1285 28.7968 49.5307 28.7968C50.1149 28.7968 50.6602 28.68 51.1666 28.4852C51.6729 28.2515 52.1014 27.9399 52.374 27.5504C52.6467 27.1609 52.7635 26.6935 52.7635 26.1872C52.7635 25.6029 52.5688 25.0966 52.2182 24.5902C51.8287 24.0839 51.1666 23.5386 50.1149 22.9543L49.0243 22.3311L47.9337 21.7079C46.0252 20.5784 45.0904 19.1762 45.0904 17.5013C45.0904 16.2549 45.5188 15.2422 46.3757 14.3853C47.2326 13.5674 48.5569 13.1389 50.3486 13.1389C51.5171 13.1389 52.6467 13.2947 53.7373 13.6453V15.4759C52.5298 15.0085 51.3613 14.7748 50.2318 14.7748C49.3359 14.7748 48.5959 15.0085 48.0506 15.4759C47.5053 15.9433 47.2326 16.5276 47.2326 17.1897C47.2326 17.8519 47.4663 18.3972 47.8558 18.8646C48.2843 19.293 48.8296 19.7215 49.4917 20.072L50.3097 20.5784L51.3224 21.2016L52.1793 21.7079C53.971 22.7985 54.8668 24.1618 54.8668 25.8366C54.8668 27.083 54.3994 28.1736 53.5036 29.0695C52.5688 29.9653 51.1276 30.4327 49.1022 30.4327C48.4401 30.4327 47.8558 30.3938 47.2716 30.2769C46.6484 30.1601 45.9083 29.9264 44.9346 29.5758Z" fill="#2E4186"/>
<path fill-rule="evenodd" clip-rule="evenodd" d="M58.6065 29.9264H56.5811L61.6056 13.5674H63.7479L68.8114 29.9264H66.5523L65.4227 26.343H59.6581L58.6065 29.9264ZM60.2034 24.7071H64.9553L63.0078 18.514L62.5404 16.8781L62.112 18.514L60.2034 24.7071Z" fill="#2E4186"/>
<path fill-rule="evenodd" clip-rule="evenodd" d="M72.3948 29.9264H70.4473V13.5674H72.3558L78.1594 24.4344L78.7826 26.0703H78.8215L78.7826 24.4344V13.5674H80.7301V29.9264H78.7826L73.1348 19.2151L72.3558 17.5013L72.3948 19.2151V29.9264Z" fill="#2E4186"/>
<path fill-rule="evenodd" clip-rule="evenodd" d="M84.4302 29.9264H82.4048L87.4293 13.5674H89.5716L94.6351 29.9264H92.376L91.2464 26.343H85.4818L84.4302 29.9264ZM86.0661 24.7071H90.818L88.8705 18.514L88.4031 16.8781L87.9746 18.4751L86.0661 24.7071Z" fill="#2E4186"/>
<path fill-rule="evenodd" clip-rule="evenodd" d="M100.36 29.9264V15.398H95.4917V13.5674H107.371V15.398H102.503V29.9264H100.36Z" fill="#2E4186"/>
<path fill-rule="evenodd" clip-rule="evenodd" d="M118.862 28.0957V29.9264H110.021V13.5674H118.667V15.2033H112.163V20.7731H118.044V22.409H112.163V28.0957H118.862Z" fill="#2E4186"/>
<path fill-rule="evenodd" clip-rule="evenodd" d="M123.536 29.9264H121.316L126.107 21.3574L121.783 13.5674H124.198L127.314 19.2151L130.508 13.5674H132.728L128.444 21.2016L133.235 29.9264H130.781L127.197 23.3828L123.536 29.9264Z" fill="#2E4186"/>
</svg>
