<svg width="17" height="14" viewBox="0 0 17 14" fill="none" xmlns="http://www.w3.org/2000/svg">
<path d="M16.3021 0.906683C16.2443 0.740016 16.1755 0.69336 16.0688 0.65336C15.8355 0.564471 15.4399 0.697794 15.4399 0.697794C15.4399 0.697794 1.41991 5.73779 0.619905 6.29557C0.446572 6.41557 0.388794 6.48447 0.362127 6.56669C0.22435 6.96447 0.655461 7.14003 0.655461 7.14003L4.26879 8.3178C4.26879 8.3178 4.40435 8.33781 4.45102 8.30669C5.27324 7.78669 12.7221 3.08447 13.151 2.92669C13.2199 2.90669 13.2688 2.9289 13.2555 2.97557C13.0843 3.58002 6.61546 9.32891 6.61546 9.32891C6.61546 9.32891 6.59102 9.36002 6.57546 9.39557L6.56657 9.39113L6.22879 12.9756C6.22879 12.9756 6.08657 14.0733 7.18657 12.9756C7.96213 12.2 8.71102 11.5534 9.08657 11.2378C10.3288 12.0956 11.6666 13.0445 12.2421 13.54C12.531 13.7889 12.7755 13.8289 12.9732 13.8222C13.5199 13.8022 13.6732 13.2 13.6732 13.2C13.6732 13.2 16.2288 2.9178 16.3132 1.54002C16.3221 1.40447 16.3332 1.32002 16.3332 1.22668C16.3332 1.09779 16.3221 0.968905 16.3021 0.906683Z" fill="#131D40"/>
</svg>
