<svg width="21" height="20" viewBox="0 0 21 20" fill="none" xmlns="http://www.w3.org/2000/svg">
<path fill-rule="evenodd" clip-rule="evenodd" d="M17.216 2.96906C15.4205 1.17129 13.0294 0.180176 10.4849 0.180176C5.24049 0.180176 0.971603 4.44684 0.969381 9.69129C0.969381 11.3668 1.40716 13.0046 2.24049 14.4468L0.891602 19.3757L5.93605 18.0535C7.32494 18.8113 8.8916 19.2113 10.4827 19.2113H10.4872C15.7316 19.2113 20.0005 14.9446 20.0027 9.69795C20.0027 7.15573 19.0138 4.76684 17.2183 2.96906H17.216ZM10.4849 17.6046H10.4827C9.06271 17.6046 7.6716 17.2224 6.45827 16.5024L6.16938 16.3313L3.17605 17.1157L3.97605 14.198L3.78716 13.898C2.99605 12.6402 2.57827 11.1846 2.57827 9.69129C2.57827 5.33129 6.12715 1.78462 10.4916 1.78462C12.6049 1.78462 14.5894 2.60906 16.0827 4.1024C17.576 5.59795 18.3983 7.5824 18.396 9.69573C18.396 14.0557 14.8472 17.6024 10.4872 17.6024L10.4849 17.6046ZM14.8227 11.6824C14.5849 11.5624 13.416 10.9891 13.1983 10.9091C12.9805 10.8291 12.8227 10.7891 12.6627 11.0291C12.5049 11.2668 12.0494 11.8024 11.9094 11.9602C11.7716 12.118 11.6316 12.138 11.3938 12.0202C11.156 11.9002 10.3894 11.6513 9.48271 10.8402C8.77604 10.2091 8.29826 9.43128 8.16049 9.19351C8.02271 8.95573 8.14493 8.82684 8.26493 8.70906C8.3716 8.6024 8.50271 8.43129 8.62049 8.29351C8.73827 8.15573 8.77827 8.05573 8.85827 7.89795C8.93827 7.74018 8.89827 7.60017 8.83827 7.4824C8.77827 7.3624 8.30271 6.19351 8.10493 5.71795C7.9116 5.25351 7.71605 5.31795 7.56938 5.30906C7.4316 5.3024 7.2716 5.30017 7.11382 5.30017C6.95604 5.30017 6.69827 5.36017 6.48049 5.59795C6.26271 5.83573 5.64938 6.41129 5.64938 7.58017C5.64938 8.74906 6.50049 9.88017 6.62049 10.038C6.73827 10.1957 8.29605 12.598 10.6827 13.6268C11.2494 13.8713 11.6938 14.018 12.0383 14.1268C12.6072 14.3068 13.1272 14.2824 13.536 14.2202C13.9938 14.1513 14.9427 13.6446 15.1405 13.0891C15.3383 12.5335 15.3383 12.058 15.2783 11.958C15.2183 11.858 15.0605 11.8002 14.8227 11.6802V11.6824Z" fill="#131D40"/>
</svg>
